<svg xmlns="http://www.w3.org/2000/svg" width="35.994" height="36.999" viewBox="0 0 35.994 36.999">
  <path id="Shape_5" data-name="Shape 5" d="M1391.742,3559.018a6.412,6.412,0,0,0-4.769,2.035,6.777,6.777,0,0,0-1.98,4.9v23.124a6.775,6.775,0,0,0,1.98,4.9,6.412,6.412,0,0,0,4.769,2.035h4.288a18.735,18.735,0,0,1,.164-6.118l2.3-9.972a6.75,6.75,0,0,1-.562-2.915,5.535,5.535,0,0,1,1-3.36,2.933,2.933,0,0,1,2.425-1.361,2.128,2.128,0,0,1,1.769.783,3.063,3.063,0,0,1,.621,1.963,7.7,7.7,0,0,1-.258,1.794q-.258,1.048-.691,2.457t-.621,2.228a2.752,2.752,0,0,0,.539,2.493,2.807,2.807,0,0,0,2.273,1.048q2.483,0,4.066-2.842a13.975,13.975,0,0,0,1.582-6.889,6.834,6.834,0,0,0-1.957-5.059,7.378,7.378,0,0,0-5.448-1.951,8.324,8.324,0,0,0-6.339,2.565,8.673,8.673,0,0,0-2.425,6.178,5.674,5.674,0,0,0,1.172,3.613,1.066,1.066,0,0,1,.258,1.012q-.118.41-.352,1.469a.674.674,0,0,1-.34.458.658.658,0,0,1-.551,0,5.315,5.315,0,0,1-2.73-2.649,9.692,9.692,0,0,1-.926-4.336,10.584,10.584,0,0,1,.5-3.191,11,11,0,0,1,1.558-3.083,12.825,12.825,0,0,1,2.519-2.637,11.38,11.38,0,0,1,3.585-1.843,14.718,14.718,0,0,1,4.558-.686,12,12,0,0,1,4.617.879,10.679,10.679,0,0,1,3.573,2.337,10.879,10.879,0,0,1,2.261,3.348,9.74,9.74,0,0,1,.82,3.914,14.51,14.51,0,0,1-2.683,9,8.3,8.3,0,0,1-6.925,3.553,5.4,5.4,0,0,1-2.636-.675,4.054,4.054,0,0,1-1.722-1.614q-1.031,4.215-1.242,5.034a17.024,17.024,0,0,1-2.531,5.058h16.989a6.414,6.414,0,0,0,4.769-2.035,6.776,6.776,0,0,0,1.98-4.9v-23.124a6.778,6.778,0,0,0-1.98-4.9,6.414,6.414,0,0,0-4.769-2.035Z" transform="translate(-1384.993 -3559.018)" fill="#fff"/>
</svg>
