<svg xmlns="http://www.w3.org/2000/svg" width="40.993" height="41.042" viewBox="0 0 40.993 41.042">
  <path id="Shape_4" data-name="Shape 4" d="M1495.424,3585.474a6.921,6.921,0,0,1-2.362,2.5,12.135,12.135,0,0,1-3.269,1.429,13.94,13.94,0,0,1-3.736.494,16.181,16.181,0,0,1-7.766-1.75q-3.256-1.75-3.256-4.208a2.991,2.991,0,0,1,.681-2,2.5,2.5,0,0,1,2.015-.8,2.625,2.625,0,0,1,1.441.428,6.406,6.406,0,0,1,1.228,1.029q.56.6,1.214,1.2a5.549,5.549,0,0,0,1.735,1.029,6.592,6.592,0,0,0,2.442.428,5.14,5.14,0,0,0,2.8-.682,2,2,0,0,0,1.068-1.723,1.768,1.768,0,0,0-.854-1.6,12.919,12.919,0,0,0-2.989-.962l-3.9-.962a16.441,16.441,0,0,1-2.749-.868,9.047,9.047,0,0,1-2.135-1.3,5.058,5.058,0,0,1-1.495-2.017,7.354,7.354,0,0,1-.507-2.846,6.425,6.425,0,0,1,3.269-5.758,12.283,12.283,0,0,1,3.189-1.256,14.891,14.891,0,0,1,3.523-.414,18.711,18.711,0,0,1,4.857.615,10.3,10.3,0,0,1,3.79,1.8,3.392,3.392,0,0,1,1.494,2.659,2.989,2.989,0,0,1-.76,2.058,2.565,2.565,0,0,1-2.015.855,2.629,2.629,0,0,1-1.281-.321,5.1,5.1,0,0,1-1.068-.775q-.48-.454-1.014-.9a4.736,4.736,0,0,0-1.441-.761,6.144,6.144,0,0,0-2.055-.321q-3.843,0-3.843,2.058a1.575,1.575,0,0,0,.2.8,2.241,2.241,0,0,0,.44.561,2.674,2.674,0,0,0,.8.427,8.406,8.406,0,0,0,.934.307q.374.094,1.174.281l2.776.641q1.307.294,2.335.615a14.905,14.905,0,0,1,2.2.909,8.273,8.273,0,0,1,1.948,1.309,5.883,5.883,0,0,1,1.294,1.83,5.681,5.681,0,0,1,.521,2.445A7.033,7.033,0,0,1,1495.424,3585.474Zm8.433-3.968a19.719,19.719,0,0,0,.427-4.008,18.5,18.5,0,0,0-1.481-7.308,18.411,18.411,0,0,0-10.008-10.02,18.445,18.445,0,0,0-7.3-1.483,19.653,19.653,0,0,0-4,.427,9.977,9.977,0,0,0-6.245-2.137,10.257,10.257,0,0,0-10.248,10.26,10,10,0,0,0,2.135,6.252,19.689,19.689,0,0,0-.427,4.008,18.5,18.5,0,0,0,1.481,7.308,18.412,18.412,0,0,0,10.008,10.02,18.44,18.44,0,0,0,7.3,1.483,19.662,19.662,0,0,0,4-.428,9.974,9.974,0,0,0,6.245,2.138,10.257,10.257,0,0,0,10.248-10.26,10,10,0,0,0-2.135-6.253Z" transform="translate(-1465 -3556.976)" fill="#fff"/>
</svg>
