<svg xmlns="http://www.w3.org/2000/svg" width="32.994" height="33.034" viewBox="0 0 32.994 33.034">
  <path id="Shape_3" data-name="Shape 3" d="M1569.565,3588.725a9.083,9.083,0,0,1-2.932.538,9.221,9.221,0,0,1-3.791-.656,6.559,6.559,0,0,1-2.6-1.839,8.324,8.324,0,0,1-1.4-2.387,7.082,7.082,0,0,1-.462-2.473v-8.99h-2.792v-3.549a8.288,8.288,0,0,0,2.545-1.462,6.672,6.672,0,0,0,1.654-2.043,11.9,11.9,0,0,0,.838-2.043,11.278,11.278,0,0,0,.376-1.871q.021-.215.193-.215h4.038v7.011h5.5v4.172h-5.521v8.56a3.93,3.93,0,0,0,.107.936,2.961,2.961,0,0,0,.376.871,1.789,1.789,0,0,0,.827.678,3.055,3.055,0,0,0,1.332.226,4.885,4.885,0,0,0,2.213-.473l1.332,3.936A3.846,3.846,0,0,1,1569.565,3588.725Zm8.614-27.927a5.956,5.956,0,0,0-4.371-1.817h-20.621a6.2,6.2,0,0,0-6.186,6.194v20.646a6.2,6.2,0,0,0,6.186,6.194h20.621a6.2,6.2,0,0,0,6.186-6.194v-20.646A5.97,5.97,0,0,0,1578.179,3560.8Z" transform="translate(-1547 -3558.981)" fill="#fff"/>
</svg>
