<svg xmlns="http://www.w3.org/2000/svg" width="49" height="34.985" viewBox="0 0 49 34.985">
  <path id="Shape_2" data-name="Shape 2" d="M1649.18,3575.973l-14,8.746a1.558,1.558,0,0,1-.93.273,1.888,1.888,0,0,1-.848-.219,1.628,1.628,0,0,1-.9-1.531v-17.493a1.629,1.629,0,0,1,.9-1.531,1.65,1.65,0,0,1,1.777.055l14,8.746a1.738,1.738,0,0,1,0,2.952Zm14.561-9.307a33.838,33.838,0,0,0-.588-4.031,6.358,6.358,0,0,0-1.9-3.362,5.832,5.832,0,0,0-3.4-1.585,246.655,246.655,0,0,0-36.7,0,5.768,5.768,0,0,0-3.391,1.585,6.392,6.392,0,0,0-1.887,3.362,30.219,30.219,0,0,0-.615,4.031q-.2,2.255-.232,3.731t-.027,4.1q0,2.624.027,4.1t.232,3.731a33.776,33.776,0,0,0,.588,4.031,6.352,6.352,0,0,0,1.9,3.362,5.825,5.825,0,0,0,3.4,1.585,246.655,246.655,0,0,0,36.7,0,5.764,5.764,0,0,0,3.391-1.585,6.4,6.4,0,0,0,1.887-3.362,30.152,30.152,0,0,0,.615-4.031q.205-2.255.232-3.731t.027-4.1q0-2.624-.027-4.1T1663.74,3566.667Z" transform="translate(-1615 -3557.005)" fill="#fff"/>
</svg>
